<svg width="348" height="76" viewBox="0 0 348 76" fill="none" xmlns="http://www.w3.org/2000/svg">
<path d="M15.127 15.2H0V0H45.381V15.2H30.254V76H15.127V15.2Z" fill="#FDFFF1"/>
<path d="M60.508 68.4H52.9445V45.6H60.508V38H90.7621V30.4H52.9445V22.8H60.508V15.2H98.3256V22.8H105.889V76H90.7621V68.4H83.1986V76H60.508V68.4ZM68.0715 60.8H90.7621V53.2H68.0715V60.8Z" fill="#FDFFF1"/>
<path d="M121.036 68.4H113.472V60.8H143.726V53.2H121.036V45.6H113.472V22.8H121.036V15.2H151.29V22.8H158.853V30.4H128.599V38H151.29V45.6H158.853V68.4H151.29V76H121.036V68.4Z" fill="#FDFFF1"/>
<path d="M189.107 45.6H181.544V76H166.417V0H181.544V38H189.107V30.4H196.671V15.2H211.798V30.4H204.234V38H196.671V45.6H204.234V53.2H211.798V76H196.671V53.2H189.107V45.6Z" fill="#FDFFF1"/>
<path d="M249.615 38H242.052V30.4H234.488V76H219.361V0H234.488V7.6H242.052V15.2H249.615V22.8H257.179V15.2H264.742V7.6H272.306V0H287.433V76H272.306V30.4H264.742V38H257.179V45.6H249.615V38Z" fill="#FDFFF1"/>
<path d="M295.055 22.8H302.619V15.2H340.437V22.8H348V53.2H310.182V60.8H348V68.4H340.437V76H302.619V68.4H295.055V22.8ZM310.182 38H332.873V30.4H310.182V38Z" fill="#FDFFF1"/>
</svg>
